<svg viewBox="0 0 200 200" width="200" height="200" xmlns="http://www.w3.org/2000/svg">
  <defs>
    <radialGradient id="bgGrad" cx="50%" cy="40%" r="70%">
      <stop offset="0%" stop-color="#0f2060"/>
      <stop offset="100%" stop-color="#040a1a"/>
    </radialGradient>
    <linearGradient id="hpBody" x1="0" y1="0" x2="0" y2="1">
      <stop offset="0%" stop-color="#7dd3fc"/>
      <stop offset="50%" stop-color="#2563eb"/>
      <stop offset="100%" stop-color="#1e3a8a"/>
    </linearGradient>
    <linearGradient id="ledGrad" x1="0" y1="0" x2="0" y2="1">
      <stop offset="0%" stop-color="#00ffe0"/>
      <stop offset="50%" stop-color="#00aaff"/>
      <stop offset="100%" stop-color="#0044ff"/>
    </linearGradient>
    <linearGradient id="eqGrad" x1="0" y1="0" x2="0" y2="1">
      <stop offset="0%" stop-color="#00ffe0"/>
      <stop offset="100%" stop-color="#0066ff"/>
    </linearGradient>
    <filter id="neonGlow" x="-40%" y="-40%" width="180%" height="180%">
      <feGaussianBlur in="SourceGraphic" stdDeviation="5" result="b1"/>
      <feGaussianBlur in="SourceGraphic" stdDeviation="10" result="b2"/>
      <feMerge><feMergeNode in="b2"/><feMergeNode in="b1"/><feMergeNode in="SourceGraphic"/></feMerge>
    </filter>
    <filter id="eqGlow" x="-60%" y="-20%" width="220%" height="140%">
      <feGaussianBlur in="SourceGraphic" stdDeviation="3" result="b"/>
      <feMerge><feMergeNode in="b"/><feMergeNode in="SourceGraphic"/></feMerge>
    </filter>
    <clipPath id="tile">
      <rect x="0" y="0" width="200" height="200" rx="44" ry="44"/>
    </clipPath>
  </defs>
  <rect x="0" y="0" width="200" height="200" rx="44" ry="44" fill="url(#bgGrad)"/>
  <line x1="0" y1="20" x2="200" y2="20" stroke="#1a3fff" stroke-width="0.3" opacity="0.18" clip-path="url(#tile)"/>
  <line x1="0" y1="40" x2="200" y2="40" stroke="#1a3fff" stroke-width="0.3" opacity="0.18" clip-path="url(#tile)"/>
  <line x1="0" y1="60" x2="200" y2="60" stroke="#1a3fff" stroke-width="0.3" opacity="0.18" clip-path="url(#tile)"/>
  <line x1="0" y1="80" x2="200" y2="80" stroke="#1a3fff" stroke-width="0.3" opacity="0.18" clip-path="url(#tile)"/>
  <line x1="0" y1="100" x2="200" y2="100" stroke="#1a3fff" stroke-width="0.3" opacity="0.18" clip-path="url(#tile)"/>
  <line x1="0" y1="120" x2="200" y2="120" stroke="#1a3fff" stroke-width="0.3" opacity="0.18" clip-path="url(#tile)"/>
  <line x1="0" y1="140" x2="200" y2="140" stroke="#1a3fff" stroke-width="0.3" opacity="0.18" clip-path="url(#tile)"/>
  <line x1="0" y1="160" x2="200" y2="160" stroke="#1a3fff" stroke-width="0.3" opacity="0.18" clip-path="url(#tile)"/>
  <line x1="0" y1="180" x2="200" y2="180" stroke="#1a3fff" stroke-width="0.3" opacity="0.18" clip-path="url(#tile)"/>
  <line x1="20" y1="0" x2="20" y2="200" stroke="#1a3fff" stroke-width="0.3" opacity="0.18" clip-path="url(#tile)"/>
  <line x1="40" y1="0" x2="40" y2="200" stroke="#1a3fff" stroke-width="0.3" opacity="0.18" clip-path="url(#tile)"/>
  <line x1="60" y1="0" x2="60" y2="200" stroke="#1a3fff" stroke-width="0.3" opacity="0.18" clip-path="url(#tile)"/>
  <line x1="80" y1="0" x2="80" y2="200" stroke="#1a3fff" stroke-width="0.3" opacity="0.18" clip-path="url(#tile)"/>
  <line x1="100" y1="0" x2="100" y2="200" stroke="#1a3fff" stroke-width="0.3" opacity="0.18" clip-path="url(#tile)"/>
  <line x1="120" y1="0" x2="120" y2="200" stroke="#1a3fff" stroke-width="0.3" opacity="0.18" clip-path="url(#tile)"/>
  <line x1="140" y1="0" x2="140" y2="200" stroke="#1a3fff" stroke-width="0.3" opacity="0.18" clip-path="url(#tile)"/>
  <line x1="160" y1="0" x2="160" y2="200" stroke="#1a3fff" stroke-width="0.3" opacity="0.18" clip-path="url(#tile)"/>
  <line x1="180" y1="0" x2="180" y2="200" stroke="#1a3fff" stroke-width="0.3" opacity="0.18" clip-path="url(#tile)"/>
  <circle cx="100" cy="106" r="60" fill="none" stroke="#2255ff" stroke-width="1.5" opacity="0.2" clip-path="url(#tile)"/>
  <circle cx="100" cy="106" r="78" fill="none" stroke="#2255ff" stroke-width="0.8" opacity="0.12" clip-path="url(#tile)"/>
  <g filter="url(#neonGlow)" clip-path="url(#tile)">
    <path d="M 46 105 C 46 38, 154 38, 154 105" stroke="url(#hpBody)" stroke-width="13" stroke-linecap="round" fill="none"/>
    <rect x="26" y="96" width="40" height="52" rx="13" ry="13" fill="url(#hpBody)"/>
    <rect x="134" y="96" width="40" height="52" rx="13" ry="13" fill="url(#hpBody)"/>
  </g>
  <rect x="26" y="96" width="5" height="52" rx="2.5" fill="url(#ledGrad)" clip-path="url(#tile)" opacity="0.95"/>
  <rect x="169" y="96" width="5" height="52" rx="2.5" fill="url(#ledGrad)" clip-path="url(#tile)" opacity="0.95"/>
  <circle cx="46" cy="122" r="14" fill="#06102a" opacity="0.75"/>
  <circle cx="154" cy="122" r="14" fill="#06102a" opacity="0.75"/>
  <circle cx="46" cy="122" r="4" fill="#1e60ff" opacity="0.6"/>
  <circle cx="154" cy="122" r="4" fill="#1e60ff" opacity="0.6"/>
  <g filter="url(#eqGlow)" clip-path="url(#tile)">
    <rect x="65" y="160" width="7" height="18" rx="3" fill="url(#eqGrad)"/>
    <rect x="76" y="150" width="7" height="28" rx="3" fill="url(#eqGrad)"/>
    <rect x="87" y="164" width="7" height="14" rx="3" fill="url(#eqGrad)"/>
    <rect x="98" y="144" width="7" height="34" rx="3" fill="url(#eqGrad)"/>
    <rect x="109" y="158" width="7" height="20" rx="3" fill="url(#eqGrad)"/>
    <rect x="120" y="148" width="7" height="30" rx="3" fill="url(#eqGrad)"/>
    <rect x="131" y="162" width="7" height="16" rx="3" fill="url(#eqGrad)"/>
  </g>
  <rect x="0" y="188" width="200" height="12" fill="#f97316" opacity="0.8" clip-path="url(#tile)"/>
  <rect x="0" y="0" width="200" height="80" rx="44" fill="white" fill-opacity="0.055" clip-path="url(#tile)"/>
  <rect x="1" y="1" width="198" height="198" rx="43" ry="43" fill="none" stroke="#3b82f6" stroke-width="1.5" opacity="0.35"/>
</svg>